<?xml version="1.0" encoding="utf-8"?>
<!-- Generator: Adobe Illustrator 19.0.0, SVG Export Plug-In . SVG Version: 6.00 Build 0)  -->
<svg version="1.1" id="Capa_1" xmlns="http://www.w3.org/2000/svg" xmlns:xlink="http://www.w3.org/1999/xlink" x="0px" y="0px"
	 viewBox="-462 336.2 97.8 97.8" style="enable-background:new -462 336.2 97.8 97.8;" xml:space="preserve">
<style type="text/css">
	.st0{fill:#FFFFFF;}
</style>
<g>
	<g>
		<rect x="-462" y="407" class="st0" width="17.8" height="5.4"/>
		<rect x="-462" y="399.9" class="st0" width="17.8" height="5.4"/>
		<rect x="-462" y="392.9" class="st0" width="17.8" height="5.4"/>
		<rect x="-462" y="385.9" class="st0" width="17.8" height="5.4"/>
		<rect x="-462" y="378.9" class="st0" width="17.8" height="5.4"/>
		<rect x="-442" y="407" class="st0" width="17.8" height="5.4"/>
		<rect x="-442" y="399.9" class="st0" width="17.8" height="5.4"/>
		<rect x="-442" y="392.9" class="st0" width="17.8" height="5.4"/>
		<rect x="-422" y="407" class="st0" width="17.8" height="5.4"/>
		<rect x="-422" y="399.9" class="st0" width="17.8" height="5.4"/>
		<rect x="-422" y="392.9" class="st0" width="17.8" height="5.4"/>
		<rect x="-422" y="385.9" class="st0" width="17.8" height="5.4"/>
		<rect x="-422" y="378.9" class="st0" width="17.8" height="5.4"/>
		<rect x="-422" y="371.8" class="st0" width="17.8" height="5.4"/>
		<rect x="-422" y="364.8" class="st0" width="17.8" height="5.4"/>
		<rect x="-402" y="407" class="st0" width="17.8" height="5.4"/>
		<rect x="-402" y="399.9" class="st0" width="17.8" height="5.4"/>
		<rect x="-402" y="392.9" class="st0" width="17.8" height="5.4"/>
		<rect x="-402" y="385.9" class="st0" width="17.8" height="5.4"/>
		<rect x="-402" y="378.9" class="st0" width="17.8" height="5.4"/>
		<rect x="-382" y="407" class="st0" width="17.8" height="5.4"/>
		<rect x="-382" y="399.9" class="st0" width="17.8" height="5.4"/>
		<rect x="-382" y="392.9" class="st0" width="17.8" height="5.4"/>
		<rect x="-382" y="385.9" class="st0" width="17.8" height="5.4"/>
		<rect x="-382" y="378.9" class="st0" width="17.8" height="5.4"/>
		<rect x="-382" y="371.8" class="st0" width="17.8" height="5.4"/>
		<rect x="-382" y="364.8" class="st0" width="17.8" height="5.4"/>
		<rect x="-382" y="357.8" class="st0" width="17.8" height="5.4"/>
	</g>
</g>
</svg>
